<?xml version="1.0" standalone="no"?>
<!DOCTYPE svg PUBLIC "-//W3C//DTD SVG 1.0//EN" "http://www.w3.org/TR/2001/REC-SVG-20010904/DTD/svg10.dtd">
<svg xmlns="http://www.w3.org/2000/svg" xmlns:xlink="http://www.w3.org/1999/xlink" id="body_1" width="24" height="24">

<g transform="matrix(0.8000001 0 0 0.8000001 0 0)">
	<g transform="matrix(0.6 0 0 0.6 0 0)">
		<g>
            <path d="M28.5 24.5C 29.1667 24.5 29.5 24.1667 29.5 23.5C 30.1667 23.5 30.5 23.1667 30.5 22.5C 31.1667 22.5 31.5 22.1667 31.5 21.5C 37.7588 19.7649 40.5922 15.7649 40 9.5C 33.5114 8.10455 29.3447 10.7712 27.5 17.5C 26.8333 17.5 26.5 17.8333 26.5 18.5C 25.8333 18.5 25.5 18.8333 25.5 19.5C 24.8333 19.5 24.5 19.8333 24.5 20.5C 23.2521 19.6661 22.5854 18.3328 22.5 16.5C 23.6728 11.7946 26.3395 7.96131 30.5 5C 43 1.5 47.5 6 44 18.5C 41.0129 22.8429 37.0129 25.5096 32 26.5C 30.3189 26.3917 29.1522 25.7251 28.5 24.5z" stroke="none" fill="#000000" fill-rule="nonzero" fill-opacity="0.7764706" />
		</g>
		<g>
            <path d="M31.5 21.5C 30.8333 21.5 30.5 21.8333 30.5 22.5C 29.8333 22.5 29.5 22.8333 29.5 23.5C 28.8333 23.5 28.5 23.8333 28.5 24.5C 26.8333 25.5 25.5 26.8333 24.5 28.5C 23.8333 28.5 23.5 28.8333 23.5 29.5C 22.8333 29.5 22.5 29.8333 22.5 30.5C 21.8333 30.5 21.5 30.8333 21.5 31.5C 19.9582 32.3007 18.2915 32.634 16.5 32.5C 16.366 30.7085 16.6993 29.0418 17.5 27.5C 18.1667 27.5 18.5 27.1667 18.5 26.5C 19.1667 26.5 19.5 26.1667 19.5 25.5C 20.1667 25.5 20.5 25.1667 20.5 24.5C 22.1667 23.5 23.5 22.1667 24.5 20.5C 25.1667 20.5 25.5 20.1667 25.5 19.5C 26.1667 19.5 26.5 19.1667 26.5 18.5C 27.1667 18.5 27.5 18.1667 27.5 17.5C 29.0418 16.6993 30.7085 16.366 32.5 16.5C 32.634 18.2915 32.3007 19.9582 31.5 21.5z" stroke="none" fill="#000000" fill-rule="nonzero" fill-opacity="0.8" />
		</g>
		<g>
            <path d="M20.5 24.5C 19.8333 24.5 19.5 24.8333 19.5 25.5C 18.8333 25.5 18.5 25.8333 18.5 26.5C 17.8333 26.5 17.5 26.8333 17.5 27.5C 11.2412 29.2351 8.40782 33.2351 9 39.5C 15.4886 40.8954 19.6553 38.2288 21.5 31.5C 22.1667 31.5 22.5 31.1667 22.5 30.5C 23.1667 30.5 23.5 30.1667 23.5 29.5C 24.1667 29.5 24.5 29.1667 24.5 28.5C 25.7251 29.1522 26.3917 30.3189 26.5 32C 25.5096 37.0129 22.8429 41.0129 18.5 44C 6 47.5 1.5 43 5 30.5C 7.98712 26.1571 11.9871 23.4904 17 22.5C 18.6811 22.6083 19.8478 23.2749 20.5 24.5z" stroke="none" fill="#000000" fill-rule="nonzero" fill-opacity="0.78039217" />
		</g>
	</g>
</g>
</svg>