<?xml version="1.0" standalone="no"?>
<!DOCTYPE svg PUBLIC "-//W3C//DTD SVG 1.0//EN" "http://www.w3.org/TR/2001/REC-SVG-20010904/DTD/svg10.dtd">
<svg xmlns="http://www.w3.org/2000/svg" xmlns:xlink="http://www.w3.org/1999/xlink" id="body_1" width="22" height="22">

<g transform="matrix(0.73333335 0 0 0.73333335 0 0)">
	<g transform="matrix(0.6 0 0 0.6 0 0)">
		<g>
            <path d="M49.5 9.5C 49.5 10.1667 49.5 10.8333 49.5 11.5C 45.0644 14.5502 43.2311 18.8835 44 24.5C 39.2564 38.2353 29.5897 45.5687 15 46.5C 9.58888 46.0224 4.42221 44.6891 -0.5 42.5C -0.5 41.8333 -0.5 41.1667 -0.5 40.5C 3.95971 41.1153 7.95971 40.1153 11.5 37.5C 8.16667 36.1667 5.83333 33.8333 4.5 30.5C 5.02527 29.8076 5.69194 29.3076 6.5 29C 2.87539 26.9292 0.875385 23.7625 0.5 19.5C 1.26236 19.0894 2.26236 18.9227 3.5 19C 1.11394 14.8817 0.94727 10.7151 3 6.5C 8.37456 12.5205 15.0412 16.1872 23 17.5C 24.9962 5.04903 31.6629 1.71569 43 7.5C 44.5589 6.97063 46.0589 6.30396 47.5 5.5C 48.5896 6.39138 48.5896 7.39138 47.5 8.5C 47.9569 9.29755 48.6236 9.63088 49.5 9.5z" stroke="none" fill="#000000" fill-rule="nonzero" fill-opacity="0.9098039" />
		</g>
	</g>
</g>
</svg>