<svg xmlns="http://www.w3.org/2000/svg" width="19" viewBox="0 0 19 19" role="img" aria-label="46 views" class="blog-icon-fill"><title></title><path d="M18.6514224,10.4604595 C17.3924224,11.9688254 13.9774224,15.4790227 9.46342244,15.5 L9.42442244,15.5 C6.26242244,15.5 3.20842244,13.7938483 0.345422443,10.4264963 C-0.115140814,9.88163847 -0.115140814,9.08439833 0.345422443,8.5395405 C1.60442244,7.03117456 5.01942244,3.52097727 9.53342244,3.5 L9.57342244,3.5 C12.7354224,3.5 15.7894224,5.20615167 18.6524224,8.5735037 C19.1122856,9.11875503 19.1118633,9.91569484 18.6514224,10.4604595 Z M17.8674224,9.2228003 C15.2084224,6.09518855 12.4194224,4.50990594 9.57442244,4.50990594 L9.54042244,4.50990594 C5.46142244,4.52888537 2.30642244,7.78335969 1.14042244,9.18084575 C0.991393136,9.3517953 0.988008897,9.60533857 1.13242244,9.78019645 C3.79142244,12.9078082 6.58142244,14.4920919 9.42542244,14.4920919 L9.46042244,14.4920919 C13.5394224,14.4741114 16.6934224,11.2196371 17.8604224,9.822151 C18.0095734,9.6511131 18.0125381,9.39726759 17.8674224,9.2228003 L17.8674224,9.2228003 Z M9.49942244,13.3932823 C7.35251405,13.3646853 5.63255349,11.6080263 5.65157552,9.46333471 C5.67059754,7.31864313 7.42144652,5.59270141 9.56852513,5.6021069 C11.7156037,5.61151239 13.4512316,7.35272696 13.4514224,9.49750271 C13.4349115,11.6625186 11.6668124,13.4054651 9.49942244,13.3932823 L9.49942244,13.3932823 Z M9.49942244,6.61762258 C7.91092198,6.63961751 6.63891624,7.93990193 6.65354481,9.52676854 C6.66817338,11.1136351 7.96393479,12.3902997 9.55257137,12.3830695 C11.1412079,12.3758393 12.4252698,11.0874333 12.4254224,9.50049946 C12.4127657,7.89797688 11.1037033,6.60820738 9.49942244,6.61762258 L9.49942244,6.61762258 Z"></path></svg>